<svg xmlns="http://www.w3.org/2000/svg" width="328.817" height="421.645" viewBox="0 0 328.817 421.645"><g transform="translate(-14.625 -33.43)"><text transform="translate(29.034 432.075)" fill="#1d1d1d" font-size="78.659" font-family="DINCondensed-Bold, DIN Condensed" font-weight="700"><tspan x="0" y="0">NEIGHBORLY</tspan></text><path d="M187.918,125.257l-.113.08.078-.105Z"/><path d="M188.029,125.337l-.111-.08.033-.025Z"/><path d="M187.918,125.257l-.113.08.078-.105Z"/><path d="M188.029,125.337l-.111-.08.033-.025Z"/><path d="M187.918,125.257l-.113.08.078-.105Z"/><path d="M188.029,125.337l-.111-.08.033-.025Z"/><path d="M264.715,51.563l-.605,2.886c-.508-.313-1.027-.627-1.546-.93l.584-2.6Z"/><path d="M188.029,125.337l-.111-.08.033-.025Z"/><path d="M187.918,125.257l-.113.08.078-.105Z"/><path d="M311.484,100.807A145.376,145.376,0,1,1,60.06,246.336L94,224.3a105.15,105.15,0,1,0,181.486-105.02l-14.325,7.341-5.146,2.638-11.6,5.957,3.438-15.46.346-1.578,3.027-13.622,1.978-8.876,9.363-42.164c.519.3,1.038.617,1.546.93l.605-2.886,78.727,32.855Z" fill="#1d1d1d"/><path d="M264.715,51.563l-.605,2.886c-.508-.313-1.027-.627-1.546-.93l.584-2.6Z"/><path d="M248.275,46.12l-8.48,40.7A105.192,105.192,0,0,0,89.386,213.1L54.914,235.471A145.423,145.423,0,0,1,248.275,46.12Z" fill="#da354c"/><path d="M211.752,177.653l-23.839-17.471-23.839,17.471-50.639,37.093a83.539,83.539,0,0,0,62.975,46.607V234.119H198.5v27.59A83.534,83.534,0,0,0,263.688,215.7Zm-27.385,46.109H165.815V205.21h18.552Zm0-24.984H165.815V180.226h18.552Zm25.622,24.984H191.437V205.21h18.552Zm0-24.984H191.437V180.226h18.552Z" fill="#da354c"/><path d="M272.283,178.777q0,4.055-.378,8.011l-83.873-61.45-.087-.108-.032.032-.032-.032-.076.108-44.012,32.249V135.219l-15.244,6.26v27.276l-22.974,16.833q-.274-3.373-.27-6.811A83.493,83.493,0,0,1,244.477,116.57q.891.795,1.751,1.622l-4.054,20.1,14.833-7.643c.432.605.854,1.222,1.265,1.838A83.014,83.014,0,0,1,272.283,178.777Z" fill="#da354c"/><path d="M69.889,305.5a6.038,6.038,0,0,1-2.1-1.419,4.413,4.413,0,0,1-.006-6.677,4.7,4.7,0,0,1,6.993-.109,5.059,5.059,0,0,1,1.311,1.865l-.9.507a4.466,4.466,0,0,0-1.091-1.611c-1.585-1.544-3.626-1.558-5.356.218-1.614,1.654-1.7,3.647-.052,5.25a4.873,4.873,0,0,0,1.7,1.109Z" fill="#1d1d1d"/><path d="M81.24,309.483c-2.123,2.457-4.742,2.469-6.564.895-1.885-1.63-1.946-4.236-.078-6.4,1.959-2.266,4.649-2.532,6.556-.883C83.1,304.782,83.072,307.365,81.24,309.483ZM75.6,304.812c-1.319,1.525-1.673,3.6-.222,4.86s3.45.632,4.851-.988c1.227-1.421,1.767-3.544.231-4.871S76.955,303.244,75.6,304.812Z" fill="#1d1d1d"/><path d="M89.756,316.828c.731-1.1,1.609-2.414,2.324-3.349l-.034-.025c-.92.693-1.936,1.4-3.1,2.161l-4.073,2.673-.741-.553,1.465-4.514c.436-1.334.861-2.536,1.318-3.593l-.022-.017c-.726.926-1.728,2.151-2.641,3.235l-2.622,3.092-.932-.695,6.171-7.169,1.245.929-1.438,4.621c-.381,1.166-.742,2.189-1.138,3.116l.033.026c.761-.621,1.65-1.251,2.7-1.953l4.076-2.654,1.246.929L88.422,321l-.953-.712Z" fill="#1d1d1d"/><path d="M100.62,323.992c.645-1.148,1.42-2.529,2.061-3.514l-.036-.023c-.863.761-1.823,1.545-2.921,2.389l-3.856,2.976-.78-.494,1.115-4.611c.332-1.363.665-2.594,1.039-3.681l-.023-.015c-.652.978-1.558,2.276-2.385,3.425l-2.377,3.283-.98-.623,5.6-7.616,1.313.83-1.08,4.717c-.291,1.19-.573,2.237-.9,3.193l.035.022c.709-.677,1.548-1.373,2.539-2.152l3.86-2.956,1.311.831-4.548,8.283-1-.637Z" fill="#1d1d1d"/><path d="M108.543,322.461l-2.658,4.913c-1.006,1.859-.607,3.094.5,3.693,1.231.666,2.46.28,3.452-1.555L112.5,324.6l1.083.587-2.618,4.839c-1.379,2.548-3.287,2.87-5.085,1.9-1.7-.92-2.454-2.585-1.061-5.158l2.644-4.89Z" fill="#1d1d1d"/><path d="M112.727,335.3l3.95-8.571,1.208.556.748,5.6a26.618,26.618,0,0,1,.256,3.494h.031c.426-1.191.881-2.245,1.5-3.58l1.653-3.586,1.043.48-3.95,8.572-1.119-.516-.718-5.6a30.317,30.317,0,0,1-.284-3.6l-.044,0c-.433,1.109-.884,2.151-1.54,3.576l-1.687,3.662Z" fill="#1d1d1d"/><path d="M127.487,331.483l-3.553,8.744-1.129-.458,3.553-8.744Z" fill="#1d1d1d"/><path d="M132.068,334.353l-2.7-.973.352-.975,6.568,2.369-.351.974-2.711-.977-2.849,7.9-1.158-.418Z" fill="#1d1d1d"/><path d="M138.255,345.266l1.15-3.836-1.3-6.059,1.328.4.526,2.876c.145.789.248,1.418.341,2.133l.026.009c.432-.515.916-1.013,1.471-1.592l2.048-2.105,1.328.4-4.587,4.281-1.152,3.85Z" fill="#1d1d1d"/><path d="M151.756,339.245a14,14,0,0,1,2.324.311,3.88,3.88,0,0,1,2.424,1.321,2.544,2.544,0,0,1,.4,2.1,2.778,2.778,0,0,1-1.135,1.818,3.9,3.9,0,0,1-3.038.409,4.151,4.151,0,0,1-.941-.286l-.792,3.7-1.19-.254Zm.238,4.705a4.129,4.129,0,0,0,.965.307c1.438.307,2.463-.2,2.737-1.476.26-1.219-.476-1.993-1.791-2.274a5.191,5.191,0,0,0-1.143-.145Z" fill="#1d1d1d"/><path d="M164.43,346.605l-3.621-.582-.54,3.359,4.035.649-.161,1.009L158.9,350.2l1.5-9.314,5.03.807-.162,1.01-3.828-.615-.473,2.944,3.62.582Z" fill="#1d1d1d"/><path d="M172.893,347.612l-3.647-.4-.368,3.381,4.064.444-.112,1.015-5.273-.575,1.021-9.379,5.066.551-.111,1.016-3.855-.42-.323,2.965,3.647.4Z" fill="#1d1d1d"/><path d="M176.765,343.034a12.689,12.689,0,0,1,2.344-.066,3.854,3.854,0,0,1,2.681.92,2.347,2.347,0,0,1,.642,1.829,2.479,2.479,0,0,1-1.908,2.3l0,.041a2.351,2.351,0,0,1,1.277,1.978,14.887,14.887,0,0,0,.584,2.625l-1.258-.07a12.381,12.381,0,0,1-.5-2.284c-.207-1.314-.683-1.832-1.785-1.935l-1.145-.064-.226,4.08-1.217-.068Zm.976,4.357,1.245.069c1.3.072,2.163-.6,2.222-1.67.068-1.216-.783-1.8-2.068-1.882a4.974,4.974,0,0,0-1.208.046Z" fill="#1d1d1d"/><path d="M188.416,348.511l-.01.909-3.458-.037.011-.909Z" fill="#1d1d1d"/><path d="M192.447,344.3l-2.869.079-.028-1.036,6.985-.192.028,1.036-2.883.08.23,8.4-1.232.034Z" fill="#1d1d1d"/><path d="M206.987,346.973c.272,3.235-1.55,5.116-3.947,5.318-2.483.209-4.388-1.568-4.628-4.413-.251-2.984,1.438-5.092,3.948-5.3C204.926,342.358,206.752,344.184,206.987,346.973Zm-7.281.768c.17,2.009,1.409,3.715,3.319,3.554,1.925-.163,2.863-2.025,2.683-4.158-.157-1.869-1.3-3.739-3.321-3.569C200.38,343.737,199.533,345.677,199.706,347.741Z" fill="#1d1d1d"/><path d="M213.2,346.7l.123.9-3.428.469-.123-.9Z" fill="#1d1d1d"/><path d="M215.359,341.228a14.2,14.2,0,0,1,2.269-.6,3.881,3.881,0,0,1,2.745.3,2.545,2.545,0,0,1,1.167,1.8,2.78,2.78,0,0,1-.357,2.114,3.906,3.906,0,0,1-2.653,1.535,4.139,4.139,0,0,1-.979.094l.676,3.721-1.2.218Zm2.014,4.261a4.079,4.079,0,0,0,1.009-.084c1.447-.263,2.2-1.126,1.968-2.408-.223-1.227-1.2-1.661-2.521-1.422a5.117,5.117,0,0,0-1.113.3Z" fill="#1d1d1d"/><path d="M229.877,343.212l-3.571.841.78,3.31,3.979-.936.234.995-5.165,1.215-2.161-9.183,4.96-1.167.234.994-3.775.887.683,2.9,3.57-.84Z" fill="#1d1d1d"/><path d="M238.072,340.94l-3.524,1.015.941,3.268,3.927-1.13.282.982-5.1,1.466-2.607-9.064,4.9-1.41.283.982-3.726,1.073.825,2.864,3.524-1.013Z" fill="#1d1d1d"/><path d="M239.95,335.226a12.664,12.664,0,0,1,2.145-.949,3.87,3.87,0,0,1,2.832-.164,2.356,2.356,0,0,1,1.287,1.453,2.479,2.479,0,0,1-.9,2.856l.014.04a2.348,2.348,0,0,1,1.931,1.346,15.013,15.013,0,0,0,1.534,2.211l-1.192.411a12.365,12.365,0,0,1-1.33-1.925c-.69-1.139-1.326-1.437-2.386-1.115l-1.085.375,1.335,3.862-1.151.4Zm2.554,3.664,1.177-.407a1.854,1.854,0,0,0,1.427-2.387c-.4-1.152-1.4-1.366-2.627-.959a4.983,4.983,0,0,0-1.1.5Z" fill="#1d1d1d"/><path d="M255.318,337.854a4.319,4.319,0,0,0,2.248-.307c1.143-.5,1.548-1.39,1.168-2.263-.352-.809-1.016-1.07-2.38-1.011-1.63.114-2.82-.238-3.351-1.458-.586-1.347.1-2.835,1.776-3.566a4.287,4.287,0,0,1,2.1-.408l.09,1.045a3.779,3.779,0,0,0-1.823.3c-1.181.515-1.323,1.416-1.066,2.007.351.809,1.051.977,2.446.92,1.709-.071,2.761.31,3.314,1.581.581,1.335.1,2.92-1.946,3.808a4.888,4.888,0,0,1-2.448.41Z" fill="#1d1d1d"/><path d="M266.448,329.43l-3.284,1.633,1.514,3.047,3.662-1.82.454.916-4.752,2.361-4.2-8.45,4.563-2.269.455.916-3.473,1.725,1.328,2.671L266,328.527Z" fill="#1d1d1d"/><path d="M267.263,323.478a12.545,12.545,0,0,1,1.94-1.32,3.855,3.855,0,0,1,2.756-.672,2.348,2.348,0,0,1,1.527,1.2,2.479,2.479,0,0,1-.364,2.971l.019.035a2.353,2.353,0,0,1,2.144.978,14.893,14.893,0,0,0,1.907,1.9l-1.1.621a12.409,12.409,0,0,1-1.657-1.654c-.884-1-1.563-1.175-2.547-.669l-1,.566,2.01,3.56-1.06.6Zm3.173,3.143,1.086-.612a1.857,1.857,0,0,0,.973-2.606c-.6-1.062-1.629-1.091-2.758-.469a4.915,4.915,0,0,0-.994.688Z" fill="#1d1d1d"/><path d="M281.931,325.631l-7.684-6.287,1.109-.71,3.744,3.122c1.03.854,1.945,1.633,2.753,2.43l.024-.016c-.366-1.064-.677-2.278-.988-3.542l-1.17-4.788,1.1-.7,2.247,9.769Z" fill="#1d1d1d"/><path d="M283.768,313.036l5.422,7.723-1,.7-5.423-7.722Z" fill="#1d1d1d"/><path d="M297.393,314.229a6.052,6.052,0,0,1-1.7,1.873,4.409,4.409,0,0,1-6.6-.941,4.694,4.694,0,0,1,.882-6.93A5.054,5.054,0,0,1,292,307.2l.373.967a4.43,4.43,0,0,0-1.747.849c-1.753,1.348-2.056,3.365-.546,5.328,1.408,1.829,3.367,2.2,5.185.8a4.882,4.882,0,0,0,1.336-1.523Z" fill="#1d1d1d"/><path d="M301.022,305.749l-2.78,2.393,2.219,2.579,3.1-2.666.666.774-4.023,3.462-6.155-7.156,3.864-3.324.667.775-2.941,2.53,1.946,2.261,2.781-2.393Z" fill="#1d1d1d"/><path d="M305.6,305.572a4.306,4.306,0,0,0,2.007-1.059,1.694,1.694,0,0,0,.321-2.528c-.608-.639-1.321-.657-2.583-.133-1.492.666-2.732.744-3.649-.22-1.014-1.066-.884-2.7.444-3.962a4.3,4.3,0,0,1,1.831-1.1l.442.953a3.759,3.759,0,0,0-1.608.91,1.53,1.53,0,0,0-.313,2.253c.608.638,1.323.557,2.615.025,1.581-.655,2.7-.657,3.656.347,1,1.055,1.092,2.713-.521,4.247a4.874,4.874,0,0,1-2.16,1.224Z" fill="#1d1d1d"/><path d="M24.885,237.992l-.953-3.138L37.04,220l-.018-.06-16.134,4.9-1.011-3.327,22.695-6.9.958,3.152L30.417,232.609l.018.061,16.134-4.9,1.01,3.327Z" fill="#1d1d1d"/><path d="M18.091,213.36l-2.338-14.49,3.339-.539,1.783,11.055,6.7-1.079-1.523-9.438,3.145-.508L30.72,207.8l6.893-1.111L35.83,195.632l3.34-.539,2.336,14.49Z" fill="#1d1d1d"/><path d="M15.349,193.069,15.1,189.6l23.66-1.678.247,3.47Z" fill="#1d1d1d"/><path d="M25.492,175.281l.192-8.163,4.824.113a8.528,8.528,0,0,1,5.9,2.5,8,8,0,0,1,2.315,5.884,8.256,8.256,0,0,1-4.43,7.094q-.543.24-1.036.433a6.93,6.93,0,0,1-1.276.286,41.142,41.142,0,0,1-5.5.106,40.759,40.759,0,0,1-5.524-.367,6.716,6.716,0,0,1-2.243-.824,8.092,8.092,0,0,1-2.865-2.747,7.718,7.718,0,0,1-1.226-4.55,7.631,7.631,0,0,1,2.16-5.367,9.018,9.018,0,0,1,5.055-2.528l-.087,3.689a5.27,5.27,0,0,0-2.489,1.487,4.463,4.463,0,0,0-1.063,2.815,4.693,4.693,0,0,0,.455,2.124,4.424,4.424,0,0,0,1.188,1.48,3.991,3.991,0,0,0,1.952.945,29.284,29.284,0,0,0,4.769.366,28.6,28.6,0,0,0,4.748-.141,4.032,4.032,0,0,0,2.027-.852,4.108,4.108,0,0,0,1.223-1.424,3.989,3.989,0,0,0,.588-2.1,4.378,4.378,0,0,0-1.357-3.4,5.083,5.083,0,0,0-3.573-1.442l-1.24-.028-.11,4.686Z" fill="#1d1d1d"/><path d="M30.846,149.1l-1.444,9,10.232,1.643-.551,3.435-23.419-3.761.553-3.435,10.04,1.613,1.444-9-10.04-1.613.552-3.434,23.418,3.761-.551,3.434Z" fill="#1d1d1d"/><path d="M20.08,135.453l2.591-8.519a6.956,6.956,0,0,1,3.162-4.358,6.264,6.264,0,0,1,4.905-.3,5.606,5.606,0,0,1,2.479,1.461,4.556,4.556,0,0,1,.849,1.345,7.4,7.4,0,0,1,.557,1.916l.063.018a4.636,4.636,0,0,1,2.773-2.128,6.787,6.787,0,0,1,3.546.136,6.592,6.592,0,0,1,4.112,3.2,6.047,6.047,0,0,1,.473,4.874l-2.818,9.264Zm4.061-2.4,6.525,1.984,1.464-4.813a3.538,3.538,0,0,0-.17-2.986,3.306,3.306,0,0,0-2.018-1.57,3.478,3.478,0,0,0-2.6.166,3.845,3.845,0,0,0-1.74,2.406Zm9.572,2.91,6.836,2.079,1.562-5.137a3.613,3.613,0,0,0-.218-3.038,3.679,3.679,0,0,0-2.111-1.584,3.724,3.724,0,0,0-2.665.132,3.675,3.675,0,0,0-1.841,2.411Z" fill="#1d1d1d"/><path d="M37.722,119.208a40.934,40.934,0,0,1-4.945-2.514,6.7,6.7,0,0,1-1.742-1.643,8.075,8.075,0,0,1-1.544-3.646,7.736,7.736,0,0,1,.667-4.664,7.888,7.888,0,0,1,6.857-4.766,5.532,5.532,0,0,1,2.391.208,46.808,46.808,0,0,1,5.117,2.107,47,47,0,0,1,4.919,2.468A5.6,5.6,0,0,1,51.2,108.44a7.642,7.642,0,0,1,1.55,3.58,8.013,8.013,0,0,1-.652,4.723,8.255,8.255,0,0,1-6.863,4.78q-.594.006-1.122-.008a6.973,6.973,0,0,1-1.286-.241A40.966,40.966,0,0,1,37.722,119.208Zm1.443-3.165a28.453,28.453,0,0,0,4.421,1.738,4.022,4.022,0,0,0,2.2.014,4.117,4.117,0,0,0,1.685-.827,3.991,3.991,0,0,0,1.367-1.7,4.185,4.185,0,0,0,.407-2.192,3.876,3.876,0,0,0-.506-1.756,4.228,4.228,0,0,0-1.438-1.679,30.29,30.29,0,0,0-4.218-2.183,31.038,31.038,0,0,0-4.445-1.767,4.987,4.987,0,0,0-3.87.786,4.941,4.941,0,0,0-1.357,1.757,4.7,4.7,0,0,0-.417,2.135,4.443,4.443,0,0,0,.51,1.828,3.989,3.989,0,0,0,1.422,1.638A29.518,29.518,0,0,0,39.165,116.043Z" fill="#1d1d1d"/><path d="M37.279,92.812l4.776-7.6a6.928,6.928,0,0,1,3.815-3.137,6.4,6.4,0,0,1,5.5.764,6.59,6.59,0,0,1,3.2,7.252l11.741,1.1-2.2,3.5L53,93.322l-2.371,3.772,8.583,5.394-1.851,2.945ZM47.932,95.4l2.807-4.467a3.659,3.659,0,0,0-1.127-5.317,3.2,3.2,0,0,0-2.893-.456,3.921,3.921,0,0,0-1.983,1.777l-2.908,4.628Z" fill="#1d1d1d"/><path d="M49.932,73.681,52.143,71l15.7,12.922,7.116-8.646,2.611,2.149L68.246,88.754Z" fill="#1d1d1d"/><path d="M73.072,68.238,58.265,63.392l2.584-2.632,10.922,3.9-4.1-10.848,2.584-2.631,5.114,14.716,6.964,6.837-2.3,2.343Z" fill="#1d1d1d"/></g></svg>