<svg xmlns="http://www.w3.org/2000/svg" width="24.365" height="30.017" viewBox="0 0 24.365 30.017"><path d="M8.847,29.438A6.722,6.722,0,0,1,7.293,28a19.281,19.281,0,0,1-1.33-1.817,17.581,17.581,0,0,1-2.225-4.545A17.09,17.09,0,0,1,2.809,16.2a10.1,10.1,0,0,1,1.253-5.113A7.225,7.225,0,0,1,6.686,8.364a7,7,0,0,1,3.55-1.05,5.862,5.862,0,0,1,1.413.188c.363.1.8.262,1.337.463.688.263,1.063.425,1.188.463a2.928,2.928,0,0,0,1,.212,2.992,2.992,0,0,0,.806-.163c.181-.062.525-.175,1.013-.387.483-.175.865-.325,1.169-.437a10.431,10.431,0,0,1,1.313-.325,6.2,6.2,0,0,1,1.435-.062,8.513,8.513,0,0,1,2.425.525,6.542,6.542,0,0,1,3.071,2.45,6.152,6.152,0,0,0-.906.688,7.653,7.653,0,0,0-1.538,1.881,6.374,6.374,0,0,0-.805,3.15,6.451,6.451,0,0,0,1.05,3.575,6.663,6.663,0,0,0,1.917,1.92,4.913,4.913,0,0,0,1.05.563c-.15.469-.315.925-.506,1.375A17.736,17.736,0,0,1,25.1,26.278c-.54.788-.965,1.375-1.288,1.763a6.969,6.969,0,0,1-1.475,1.371,3.284,3.284,0,0,1-1.815.545,4.024,4.024,0,0,1-1.292-.159c-.362-.119-.72-.253-1.07-.4a8.675,8.675,0,0,0-1.131-.425,5.649,5.649,0,0,0-1.455-.184,5.833,5.833,0,0,0-1.45.181,9.009,9.009,0,0,0-1.134.406c-.525.219-.869.362-1.069.425a5.589,5.589,0,0,1-1.238.219,3.437,3.437,0,0,1-1.858-.562ZM17.415,6.362a4.655,4.655,0,0,1-2.466.545,5.013,5.013,0,0,1,.337-2.546,6.883,6.883,0,0,1,1.25-2.1A6.761,6.761,0,0,1,18.574.686,5.8,5.8,0,0,1,20.936,0a5.682,5.682,0,0,1-.312,2.588,7.423,7.423,0,0,1-1.25,2.2,6.306,6.306,0,0,1-1.983,1.575Z" transform="translate(-2.809 0.001)" fill="#fff"/></svg>