<svg xmlns="http://www.w3.org/2000/svg" width="372.601" height="64.295" viewBox="0 0 372.601 64.295"><g transform="translate(-46.612 -428.504)"><path d="M95.551,432.514l-.347-.143-.129.576L93,442.272l-.438,1.963-.669,3.013-.077.349-.76,3.42,2.565-1.318,1.138-.583,3.169-1.624a23.256,23.256,0,1,1-40.14,23.228l-7.506,4.873a32.153,32.153,0,1,0,55.608-32.187l7.068-3.625Z" fill="#318fe6"/><path d="M55.506,460.651a23.26,23.26,0,0,1,34.533-20.339l1.876-9a32.165,32.165,0,0,0-42.766,41.88l7.624-4.949A23.222,23.222,0,0,1,55.506,460.651Z" fill="#eca900"/><path d="M95.324,468.816,83.837,460.4l-5.272-3.864L73.292,460.4l-11.2,8.2A18.477,18.477,0,0,0,76.02,478.914v-6.023h4.886v6.1A18.475,18.475,0,0,0,95.324,468.816ZM77.78,470.6h-4.1v-4.1h4.1Zm0-5.526h-4.1v-4.1h4.1Zm1.564-4.1h4.1v4.1h-4.1Zm0,9.629v-4.1h4.1v4.1Z" fill="#fff"/><path d="M97.225,460.651a18.362,18.362,0,0,0-3.1-10.239c-.091-.136-.184-.273-.28-.407l-3.28,1.691.9-4.445c-.126-.122-.256-.242-.387-.359a18.466,18.466,0,0,0-30.781,13.759c0,.507.019,1.009.06,1.506l5.081-3.723V452.4l3.371-1.384v4.947l9.735-7.133h0l.023-.017h0v0l.006-.006h0l-.006,0,.024.018-.006-.009.007.009,18.55,13.591Q97.223,461.547,97.225,460.651ZM78.542,448.83l.015-.023h0Z" fill="#eca900"/><path d="M142.889,466.394h-.157L130.618,432.65H122.91v56h8.023V454.988h.157l12.271,33.666h7.551v-56h-8.023Z" fill="#fff"/><path d="M158.147,488.654H182.06v-8.023H166.171V464.192h13.844v-7.551H166.171V440.2H182.06V432.65H158.147Z" fill="#fff"/><rect width="8.023" height="56.005" transform="translate(187.487 432.65)" fill="#fff"/><path d="M225.479,435.56a14.128,14.128,0,0,0-14.041-2.518,13.31,13.31,0,0,0-4.287,2.518,12.634,12.634,0,0,0-3.146,4.326,14.3,14.3,0,0,0-1.18,5.978V475.44a14.165,14.165,0,0,0,1.18,6.056,11.993,11.993,0,0,0,3.146,4.169,12.587,12.587,0,0,0,4.287,2.6,13.959,13.959,0,0,0,9.675,0,13.467,13.467,0,0,0,4.366-2.6,12.472,12.472,0,0,0,3.067-4.169,14.165,14.165,0,0,0,1.181-6.056V457.82h-14.4v7.08H221.7v10.54a5.336,5.336,0,0,1-1.612,4.287,5.973,5.973,0,0,1-7.63,0,5.329,5.329,0,0,1-1.613-4.287V445.864a5.332,5.332,0,0,1,1.613-4.287,5.973,5.973,0,0,1,7.63,0,5.338,5.338,0,0,1,1.612,4.287V448.7h8.024v-2.831a14.3,14.3,0,0,0-1.181-5.978A13.166,13.166,0,0,0,225.479,435.56Z" fill="#fff"/><path d="M254.74,456.641h-9.911V432.65h-8.023v56h8.023V463.72h9.911v24.935h8.023v-56H254.74Z" fill="#fff"/><path d="M293.046,436.976a12.378,12.378,0,0,0-4.444-3.147,16.426,16.426,0,0,0-6.568-1.179H270.313v56h10.934q7.864,0,11.445-3.932t3.579-11.327v-3.147a15.619,15.619,0,0,0-1.337-7.079,8.7,8.7,0,0,0-4.169-3.932,11.04,11.04,0,0,0,4.09-3.777,9.225,9.225,0,0,0,1.062-2.753,17.858,17.858,0,0,0,.354-3.854v-2.045a18.843,18.843,0,0,0-.748-5.31A11.766,11.766,0,0,0,293.046,436.976Zm-4.484,37.992a7.4,7.4,0,0,1-.865,2.989,4.881,4.881,0,0,1-2.084,1.966,8.445,8.445,0,0,1-3.815.708h-3.461V462.7h3.539a10.141,10.141,0,0,1,3.54.511,4.547,4.547,0,0,1,2.124,1.612,6.745,6.745,0,0,1,.944,2.675,25.334,25.334,0,0,1,.236,3.7Q288.72,473.239,288.562,474.968Zm-1.219-21.356q-1.377,2.006-5.388,2.005h-3.618V440.2h3.3q4.011,0,5.545,1.888t1.534,5.664A10.354,10.354,0,0,1,287.343,453.612Z" fill="#fff"/><path d="M326,435.56a14.127,14.127,0,0,0-14.04-2.518,13.3,13.3,0,0,0-4.287,2.518,12.624,12.624,0,0,0-3.147,4.326,14.32,14.32,0,0,0-1.179,5.978V475.44a14.181,14.181,0,0,0,1.179,6.056,11.984,11.984,0,0,0,3.147,4.169,12.577,12.577,0,0,0,4.287,2.6,13.959,13.959,0,0,0,9.675,0,13.463,13.463,0,0,0,4.365-2.6,12.474,12.474,0,0,0,3.068-4.169,14.181,14.181,0,0,0,1.18-6.056V445.864a14.32,14.32,0,0,0-1.18-5.978A13.169,13.169,0,0,0,326,435.56Zm-3.775,39.88a5.336,5.336,0,0,1-1.613,4.287,5.973,5.973,0,0,1-7.63,0,5.332,5.332,0,0,1-1.612-4.287V445.864a5.335,5.335,0,0,1,1.612-4.287,5.973,5.973,0,0,1,7.63,0,5.339,5.339,0,0,1,1.613,4.287Z" fill="#fff"/><path d="M362.855,457.506a20.715,20.715,0,0,0,1.534-8.417q0-16.44-14.159-16.439h-12.9v56h8.024V464.742h4.8l7.473,23.912h8.495l-8.652-25.564A11.89,11.89,0,0,0,362.855,457.506Zm-6.725-4.838a7.693,7.693,0,0,1-.865,2.714,4.6,4.6,0,0,1-1.967,1.691,8.075,8.075,0,0,1-3.382.59h-4.562V440.2h4.168q4.17,0,5.664,2.2a7.467,7.467,0,0,1,.944,2.791,29.7,29.7,0,0,1,0,7.473Z" fill="#fff"/><path d="M378.861,432.65h-8.023v56H394.75v-8.023H378.861Z" fill="#fff"/><path d="M410.718,432.65l-6.449,22.26h-.157l-6.45-22.26h-8.5l11.012,32.328v23.677H408.2V464.978l11.012-32.328Z" fill="#fff"/></g></svg>